<?xml version="1.0" standalone="no"?><svg xmlns="http://www.w3.org/2000/svg" viewBox="0 0 1440 320"><path fill="#ffd200" fill-opacity="1" d="M0,128L21.8,117.3C43.6,107,87,85,131,106.7C174.5,128,218,192,262,186.7C305.5,181,349,107,393,101.3C436.4,96,480,160,524,160C567.3,160,611,96,655,80C698.2,64,742,96,785,128C829.1,160,873,192,916,186.7C960,181,1004,139,1047,133.3C1090.9,128,1135,160,1178,154.7C1221.8,149,1265,107,1309,106.7C1352.7,107,1396,149,1418,170.7L1440,192L1440,0L1418.2,0C1396.4,0,1353,0,1309,0C1265.5,0,1222,0,1178,0C1134.5,0,1091,0,1047,0C1003.6,0,960,0,916,0C872.7,0,829,0,785,0C741.8,0,698,0,655,0C610.9,0,567,0,524,0C480,0,436,0,393,0C349.1,0,305,0,262,0C218.2,0,175,0,131,0C87.3,0,44,0,22,0L0,0Z"></path></svg>